<mxfile host="Electron" modified="2024-06-03T20:52:40.858Z" agent="Mozilla/5.0 (Windows NT 10.0; Win64; x64) AppleWebKit/537.36 (KHTML, like Gecko) draw.io/24.4.13 Chrome/124.0.6367.207 Electron/30.0.6 Safari/537.36" etag="f3P-8XhaToqmeHKmFyHa" version="24.4.13" type="device">
  <diagram name="Page-1" id="sQhcuJ0jFKHy0AcGcmEf">
    <mxGraphModel dx="814" dy="500" grid="1" gridSize="10" guides="1" tooltips="1" connect="1" arrows="1" fold="1" page="1" pageScale="1" pageWidth="850" pageHeight="1100" math="0" shadow="0">
      <root>
        <mxCell id="0" />
        <mxCell id="1" parent="0" />
        <mxCell id="33CYGFGdQwFmDU2keLfJ-1" value="Rahmen" style="shape=umlFrame;whiteSpace=wrap;html=1;pointerEvents=0;" vertex="1" parent="1">
          <mxGeometry x="40" y="150" width="420" height="160" as="geometry" />
        </mxCell>
        <mxCell id="33CYGFGdQwFmDU2keLfJ-2" value="Referenzierte Komponente" style="shape=module;align=left;spacingLeft=20;align=center;verticalAlign=middle;whiteSpace=wrap;html=1;" vertex="1" parent="1">
          <mxGeometry x="50" y="380" width="180" height="50" as="geometry" />
        </mxCell>
        <mxCell id="33CYGFGdQwFmDU2keLfJ-3" value="Komponente" style="html=1;dropTarget=0;whiteSpace=wrap;" vertex="1" parent="1">
          <mxGeometry x="70" y="210" width="140" height="50" as="geometry" />
        </mxCell>
        <mxCell id="33CYGFGdQwFmDU2keLfJ-4" value="" style="shape=module;jettyWidth=8;jettyHeight=4;" vertex="1" parent="33CYGFGdQwFmDU2keLfJ-3">
          <mxGeometry x="1" width="20" height="20" relative="1" as="geometry">
            <mxPoint x="-27" y="7" as="offset" />
          </mxGeometry>
        </mxCell>
        <mxCell id="33CYGFGdQwFmDU2keLfJ-5" value="Applikation" style="verticalAlign=top;align=left;spacingTop=8;spacingLeft=2;spacingRight=12;shape=cube;size=10;direction=south;fontStyle=4;html=1;whiteSpace=wrap;" vertex="1" parent="1">
          <mxGeometry x="280" y="370" width="180" height="70" as="geometry" />
        </mxCell>
        <mxCell id="33CYGFGdQwFmDU2keLfJ-6" value="Benutzer" style="shape=umlActor;verticalLabelPosition=bottom;verticalAlign=top;html=1;" vertex="1" parent="1">
          <mxGeometry x="395" y="205" width="30" height="60" as="geometry" />
        </mxCell>
        <mxCell id="33CYGFGdQwFmDU2keLfJ-7" value="" style="endArrow=classic;html=1;rounded=0;entryX=1;entryY=0.5;entryDx=0;entryDy=0;dashed=1;" edge="1" parent="1" source="33CYGFGdQwFmDU2keLfJ-6" target="33CYGFGdQwFmDU2keLfJ-3">
          <mxGeometry width="50" height="50" relative="1" as="geometry">
            <mxPoint x="80" y="280" as="sourcePoint" />
            <mxPoint x="200" y="280" as="targetPoint" />
          </mxGeometry>
        </mxCell>
        <mxCell id="33CYGFGdQwFmDU2keLfJ-8" value="Nutzer-Interaktion" style="edgeLabel;html=1;align=center;verticalAlign=middle;resizable=0;points=[];" vertex="1" connectable="0" parent="33CYGFGdQwFmDU2keLfJ-7">
          <mxGeometry x="-0.15" y="1" relative="1" as="geometry">
            <mxPoint as="offset" />
          </mxGeometry>
        </mxCell>
        <mxCell id="33CYGFGdQwFmDU2keLfJ-9" value="" style="endArrow=classic;html=1;rounded=0;entryX=0;entryY=0;entryDx=0;entryDy=85;dashed=1;entryPerimeter=0;" edge="1" parent="1" source="33CYGFGdQwFmDU2keLfJ-6" target="33CYGFGdQwFmDU2keLfJ-5">
          <mxGeometry width="50" height="50" relative="1" as="geometry">
            <mxPoint x="420" y="340" as="sourcePoint" />
            <mxPoint x="230" y="300" as="targetPoint" />
            <Array as="points">
              <mxPoint x="375" y="235" />
            </Array>
          </mxGeometry>
        </mxCell>
        <mxCell id="33CYGFGdQwFmDU2keLfJ-10" value="Nutzer-Interaktion" style="edgeLabel;html=1;align=center;verticalAlign=middle;resizable=0;points=[];" vertex="1" connectable="0" parent="33CYGFGdQwFmDU2keLfJ-9">
          <mxGeometry x="-0.15" y="1" relative="1" as="geometry">
            <mxPoint y="49" as="offset" />
          </mxGeometry>
        </mxCell>
        <mxCell id="33CYGFGdQwFmDU2keLfJ-11" value="" style="endArrow=classic;html=1;rounded=0;entryX=0.5;entryY=0;entryDx=0;entryDy=0;exitX=0.5;exitY=1;exitDx=0;exitDy=0;" edge="1" parent="1" source="33CYGFGdQwFmDU2keLfJ-3" target="33CYGFGdQwFmDU2keLfJ-2">
          <mxGeometry width="50" height="50" relative="1" as="geometry">
            <mxPoint x="90" y="350" as="sourcePoint" />
            <mxPoint x="210" y="350" as="targetPoint" />
          </mxGeometry>
        </mxCell>
        <mxCell id="33CYGFGdQwFmDU2keLfJ-12" value="Interaktion zwischen&amp;nbsp;&lt;div&gt;Komponenten&lt;/div&gt;" style="edgeLabel;html=1;align=center;verticalAlign=middle;resizable=0;points=[];" vertex="1" connectable="0" parent="33CYGFGdQwFmDU2keLfJ-11">
          <mxGeometry x="-0.15" y="1" relative="1" as="geometry">
            <mxPoint x="-1" y="29" as="offset" />
          </mxGeometry>
        </mxCell>
      </root>
    </mxGraphModel>
  </diagram>
</mxfile>
